<?xml version="1.0" encoding="utf-8"?>
<!-- Generator: Adobe Illustrator 23.1.0, SVG Export Plug-In . SVG Version: 6.00 Build 0)  -->
<svg version="1.1" id="Layer_1" xmlns:vectornator="http://vectornator.io"
	 xmlns="http://www.w3.org/2000/svg" xmlns:xlink="http://www.w3.org/1999/xlink" x="0px" y="0px" viewBox="0 0 975.9 155.5"
	 style="enable-background:new 0 0 975.9 155.5;" xml:space="preserve">
<style type="text/css">
	.st0{clip-path:url(#SVGID_2_);}
</style>
<g>
	<defs>
		<rect id="SVGID_1_" x="13.8" y="13.5" width="948.5" height="133.9"/>
	</defs>
	<clipPath id="SVGID_2_">
		<use xlink:href="#SVGID_1_"  style="overflow:visible;"/>
	</clipPath>
	<g id="레이어-1" vectornator:layerName="ë ˆì´ì–´ 1" class="st0">
		<path d="M315.2,86.3c-0.3,15.2,13.2,26.7,29.9,27.1l47.8,1l0.4-17l-43-0.9c-8-0.2-13.5-3-13.4-10.2l0.1-4.1l59.8,1.2l0.4-19.5
			c0.3-12.1-10.5-27.1-29.7-27.5l-21-0.4c-15.1-0.3-30.5,12-30.8,26.8L315.2,86.3z M337.6,67c0.2-7.2,5.5-13.5,13.3-13.3l11.5,0.2
			c8.1,0.2,13.5,6.2,13.3,13.9l0,0.8l-38.1-0.8L337.6,67z"/>
		<path d="M482.8,38.8l-20.7-0.4l-18.6,48.5l-17-49.3L406,37.2l26.9,77.8l20.7,0.4L482.8,38.8z"/>
		<path d="M491.4,90c-0.3,15.2,13.2,26.7,29.9,27.1l47.8,1l0.4-17l-43-0.9c-8-0.2-13.5-3-13.4-10.2l0.1-4.1L573,87l0.4-19.5
			c0.3-12.1-10.5-27.1-29.7-27.5l-21-0.4c-15.1-0.3-30.5,12-30.8,26.8L491.4,90z M513.8,70.6c0.2-7.2,5.5-13.5,13.3-13.3l11.5,0.2
			c8.1,0.2,13.5,6.2,13.3,13.9l0,0.8l-38.1-0.8L513.8,70.6z"/>
		<path d="M586.9,118.2l21.7,0.5l2.2-103.3l-21.7-0.5L586.9,118.2z"/>
		<path d="M659.6,42.5c-21.4-0.4-34.8,10.3-35.1,27.4L624,90.7c-0.4,17.1,12.6,28.6,34,29l7.5,0.2c21.6,0.5,34.9-10.4,35.3-27.6
			l0.4-20.8c0.4-17.1-12.6-28.4-34.1-28.9L659.6,42.5z M666.8,60c7.8,0.2,13.5,5,13.4,11.6l-0.4,19.8c-0.1,6.6-6,11.2-13.8,11
			l-7.5-0.2c-7.7-0.2-13.5-5-13.4-11.6l0.4-19.8c0.1-6.6,6.1-11.2,13.8-11L666.8,60z"/>
		<path d="M713.9,43.6l-2.2,103.5l21.3,0.4l0.6-28.4c4.4,1.4,9.4,2.3,14.9,2.4l5.9,0.1c21.4,0.4,34.9-10.4,35.3-27.6l0.4-20.8
			c0.4-17.1-12.7-28.4-34.1-28.9L713.9,43.6z M755.6,61.8c7.8,0.2,13.5,5,13.4,11.6l-0.4,19.8c-0.1,6.6-6,11.2-13.8,11l-7.5-0.2
			c-7.8-0.2-13.2-5-13.1-11.6l0.6-31.1L755.6,61.8z"/>
		<path d="M800.7,96.4c-0.3,15.2,13.2,26.7,29.9,27.1l47.8,1l0.4-17l-43-0.9c-8-0.2-13.5-3-13.4-10.2l0.1-4.1l59.8,1.2l0.4-19.5
			c0.3-12.1-10.5-27.1-29.7-27.5l-21-0.4c-15.1-0.3-30.5,12-30.8,26.8L800.7,96.4z M823.1,77.1c0.1-7.2,5.5-13.5,13.3-13.3l11.5,0.2
			c8.1,0.2,13.5,6.2,13.3,13.9l0,0.8l-38.1-0.8L823.1,77.1z"/>
		<path d="M919.9,63.7l0.3-16.4l-22.9-0.5l-1.6,77.8l22.9,0.5l0.7-32.2c0.2-11.7,22.1-24.3,39.9-23.9l2.5,0.1l0.4-18.8l-2.5-0.1
			C944,49.9,927.2,54.4,919.9,63.7z"/>
	</g>
</g>
<g id="레이어-2" vectornator:layerName="ë ˆì´ì–´ 2">
	<path d="M139.4,81.9c-1.5-0.1-3.1,1.1-3.2,3.7c-0.1,2.5,1.5,3.8,3,3.8l14.8,0.5l0.3-7.5L139.4,81.9z"/>
	<path d="M218.3,19l-0.4,17.5l23,1.9l28.6,0.6c6.9,0.1,12.4,5.5,12.3,11.7L281,93.2c-0.1,6.3-5.9,11.3-12.8,11.1L217,104l-0.5,0.1
		l-0.4,18.2l57.3,1.2c16.5,0.3,30.1-11.6,30.4-26.7l1-48.7c0.2-7.6-3.1-14.5-8.4-19.6c-5.3-5-12.6-8.2-20.8-8.3L218.3,19z"/>
	<path d="M216.5,104.1l1.4-67.6l-67.1-5.7L71.2,24l-2.4,69.2l-54.4,13.5l160.7,6.7L216.5,104.1z M75.6,28.6l14.6,1L98,80l0.6,0
		c3.9-12.7,8.2-35.1,12.1-47.8l14.2,1l-2.6,62.5l-9.4-0.3l1.2-34.8L110,72.8c-3.3,11.5-3.8,10.8-7.2,22.2l-10.5-0.3l-7.7-35l-0.6,0
		l-1.2,34.7L73.3,94L75.6,28.6z M143.9,59.6l5.5,0.6c10.7,0.4,15.6,8.5,15.4,14.9l-1.1,23.1L138.5,97c-8-0.3-12.2-5.6-12-11.8
		c0.2-6.2,4.8-10.7,12.5-10.4l15.4,0.5l0-0.8c0.1-3.5-0.6-6.2-7-6.4l-2.2-0.1c-4.9-0.2-6.5,0.9-7.4,3.2l-10.3-0.4
		C128.2,64.7,133.5,59.3,143.9,59.6z M186.2,64.8l4.3,0.1c9.6,0.3,14.9,4.8,15.5,12.2l-10.7-0.4c-0.6-2.1-2.6-4.5-5.6-4.6L186,72
		c-3.8-0.1-6.7,2.1-6.8,5.3l-0.3,9.6c-0.1,3.2,2.6,5.6,6.4,5.7l3.7,0.1c2.9,0.1,5.3-1.6,6-3.6l10.6,0.3c-1.3,7.1-7,10.8-16.4,10.5
		l-4.2,0c-10.4-0.4-16.7-4.8-16.4-13.1l0.3-10.1C169.3,68.3,175.8,64.4,186.2,64.8z"/>
</g>
</svg>
